<svg xmlns="http://www.w3.org/2000/svg" xmlns:xlink="http://www.w3.org/1999/xlink" viewBox="0 0 355.66 119.41"><defs><style>.cls-1{fill:url(#Безымянный_градиент_161);}.cls-2{fill:url(#Безымянный_градиент_161-2);}.cls-3{fill:url(#Безымянный_градиент_161-3);}</style><linearGradient id="Безымянный_градиент_161" x1="21.71" y1="53.31" x2="127.24" y2="100.29" gradientUnits="userSpaceOnUse"><stop offset="0"/><stop offset="0" stop-color="#060606"/><stop offset="0" stop-color="#0d0d0d"/><stop offset="0.01" stop-color="#0f0f0f"/><stop offset="0.11" stop-color="#090909"/><stop offset="0.35" stop-color="#020202"/><stop offset="1"/></linearGradient><linearGradient id="Безымянный_градиент_161-2" x1="116.51" y1="39.33" x2="234.44" y2="91.83" xlink:href="#Безымянный_градиент_161"/><linearGradient id="Безымянный_градиент_161-3" x1="240.5" y1="37.79" x2="349.46" y2="86.3" xlink:href="#Безымянный_градиент_161"/></defs><title>Лого</title><g id="Слой_2" data-name="Слой 2"><g id="Слой_1-2" data-name="Слой 1"><path class="cls-1" d="M46.56,0h25.6l46.57,102.06v17.35H99.14L85.39,88.66H33.16L19.59,119.41H0V102.06ZM59.45,30.07l-15.12,34H74.57Z"/><path class="cls-2" d="M158.59,88.66v30.75H134V0h44.84a50.94,50.94,0,0,1,18.73,3.18,36.2,36.2,0,0,1,13.49,9A37.34,37.34,0,0,1,219.15,26a55.32,55.32,0,0,1,2.67,17.61,60.71,60.71,0,0,1-2.5,17.79,39.22,39.22,0,0,1-7.81,14.34A37.88,37.88,0,0,1,202.92,83l19.24,19.07v17.35H204.81L174.05,88.66Zm0-24.57h20.62a15.36,15.36,0,0,0,6.44-1.46,17.41,17.41,0,0,0,5.67-4.21A23.91,23.91,0,0,0,195.44,52a20,20,0,0,0,1.63-8.17A17.43,17.43,0,0,0,195,35.14a20.4,20.4,0,0,0-10.74-9.45,14.51,14.51,0,0,0-4.72-1.12h-21Z"/><path class="cls-3" d="M295.87,30.93h52.58l2.4,5.15a56.44,56.44,0,0,1,4.81,23.2,59.82,59.82,0,0,1-17.18,42.35,60.52,60.52,0,0,1-18.81,12.89,58.72,58.72,0,0,1-23.11,4.89,59.54,59.54,0,0,1-23.37-4.63,59.71,59.71,0,0,1-32-31.62A57.2,57.2,0,0,1,236.42,60,59.44,59.44,0,0,1,253.6,17.78a61.17,61.17,0,0,1,19-13A57.15,57.15,0,0,1,295.87,0V24.91a33,33,0,0,0-24.74,10.31A33.67,33.67,0,0,0,261,60a33.88,33.88,0,0,0,2.75,13.58,36.22,36.22,0,0,0,7.73,11.34,34.15,34.15,0,0,0,11.26,7.56A34.61,34.61,0,0,0,296,95,39.43,39.43,0,0,0,310,92.27a30.6,30.6,0,0,0,11-7.56,34,34,0,0,0,7.56-11.34,36,36,0,0,0,2.57-13.58,28.11,28.11,0,0,0-.34-4.29H295.87Z"/></g></g></svg>